<?xml version="1.0" encoding="UTF-8" standalone="no"?>
<svg
   data-name="Layer 1"
   viewBox="0 0 512 640"
   x="0px"
   y="0px"
   version="1.1"
   id="svg400"
   sodipodi:docname="audio fastforward.svg"
   inkscape:version="1.2.2 (732a01da63, 2022-12-09)"
   xmlns:inkscape="http://www.inkscape.org/namespaces/inkscape"
   xmlns:sodipodi="http://sodipodi.sourceforge.net/DTD/sodipodi-0.dtd"
   xmlns="http://www.w3.org/2000/svg"
   xmlns:svg="http://www.w3.org/2000/svg"
   xmlns:rdf="http://www.w3.org/1999/02/22-rdf-syntax-ns#"
   xmlns:cc="http://creativecommons.org/ns#"
   xmlns:dc="http://purl.org/dc/elements/1.1/">
  <sodipodi:namedview
     id="namedview402"
     pagecolor="#ffffff"
     bordercolor="#111111"
     borderopacity="1"
     inkscape:showpageshadow="0"
     inkscape:pageopacity="0"
     inkscape:pagecheckerboard="1"
     inkscape:deskcolor="#d1d1d1"
     showgrid="false"
     inkscape:zoom="1.271875"
     inkscape:cx="256.70762"
     inkscape:cy="320.39312"
     inkscape:window-width="1920"
     inkscape:window-height="1001"
     inkscape:window-x="-9"
     inkscape:window-y="-9"
     inkscape:window-maximized="1"
     inkscape:current-layer="svg400" />
  <defs
     id="defs380">
    <style
       id="style378">.cls-1{fill:none;}</style>
  </defs>
  <title
     id="title382">media player</title>
  <path
     class="cls-1"
     d="M369.19,239.15q0.79,0.81,1.5,1.7Q370,240,369.19,239.15Z"
     id="path384" />
  <path
     class="cls-1"
     d="M272,176a23.86,23.86,0,0,1,14.88,5.18l77.59,54.22a24.17,24.17,0,0,1,3.63,2.6,24.75,24.75,0,0,0-3.63-2.61l-77.59-54.23a24,24,0,0,0-35.18,6A24,24,0,0,1,272,176Z"
     id="path386" />
  <path
     class="cls-1"
     d="M164.91,335.42A23.47,23.47,0,0,0,175,330.77l73-51.11-73,51.06A24,24,0,0,1,164.91,335.42Z"
     id="path388" />
  <path
     class="cls-1"
     d="M364.37,276.53l-77.42,54.19a23.91,23.91,0,0,1-12.86,5.09,23.77,23.77,0,0,0,12.86-5l77.42-54.22a24.06,24.06,0,0,0,7.45-7.14A24.33,24.33,0,0,1,364.37,276.53Z"
     id="path390" />
  <path
     class="cls-1"
     d="M160,176a24,24,0,0,1,14.9,5.18L248,232.34l-73.09-51.18A24,24,0,0,0,141,185.28,24,24,0,0,1,160,176Z"
     id="path392" />
  <path
     d="M256,0C114.62,0,0,114.62,0,256S114.62,512,256,512,512,397.38,512,256,397.38,0,256,0ZM374.63,263.77a5.73,5.73,0,0,0-.63,1.43h0c0,1.48-1.29,2.89-2.18,4.2a24.06,24.06,0,0,1-7.45,7.14l-77.42,54.22a23.77,23.77,0,0,1-12.86,5c-0.69.06-1.38,0.09-2.09,0.09A24.17,24.17,0,0,1,248,312h0V279.66l-73,51.11a23.47,23.47,0,0,1-10.07,4.65l-0.75.14a24.73,24.73,0,0,1-4.15.35,23.48,23.48,0,0,1-7.1-1.09c-0.75-.24-1.48-0.51-2.2-0.82a24.09,24.09,0,0,1-7.61-5.17q-0.51-.51-1-1a24.2,24.2,0,0,1-1.78-2.26c-0.27-.4-0.54-0.8-0.79-1.21-0.4-.66-0.77-1.34-1.11-2s-0.65-1.41-.92-2.14A23.79,23.79,0,0,1,136,312h0V200h0a0.31,0.31,0,0,1,0-.09,24.15,24.15,0,0,1,.49-4.84,22,22,0,0,1,.59-2.29,24,24,0,0,1,37.83-11.62L248,232.34V200h0a0.31,0.31,0,0,1,0-.09,23.91,23.91,0,0,1,2.89-11.43c0.25-.47.52-0.93,0.81-1.37a24,24,0,0,1,35.18-6l77.59,54.23A24.75,24.75,0,0,1,368.1,238h0a1.94,1.94,0,0,0,1.08,1.15q0.79,0.81,1.5,1.7A24.17,24.17,0,0,1,376,256,23.91,23.91,0,0,1,374.63,263.77Z"
     id="path394" />
  <metadata
     id="metadata521">
    <rdf:RDF>
      <cc:Work
         rdf:about="">
        <dc:title>media player</dc:title>
      </cc:Work>
    </rdf:RDF>
  </metadata>
</svg>
