<?xml version="1.0" encoding="UTF-8" standalone="no"?>
<svg
   data-name="Layer 1"
   viewBox="0 0 512 640"
   x="0px"
   y="0px"
   version="1.1"
   id="svg890"
   sodipodi:docname="audio play.svg"
   inkscape:version="1.2.2 (732a01da63, 2022-12-09)"
   xmlns:inkscape="http://www.inkscape.org/namespaces/inkscape"
   xmlns:sodipodi="http://sodipodi.sourceforge.net/DTD/sodipodi-0.dtd"
   xmlns="http://www.w3.org/2000/svg"
   xmlns:svg="http://www.w3.org/2000/svg"
   xmlns:rdf="http://www.w3.org/1999/02/22-rdf-syntax-ns#"
   xmlns:cc="http://creativecommons.org/ns#"
   xmlns:dc="http://purl.org/dc/elements/1.1/">
  <defs
     id="defs894" />
  <sodipodi:namedview
     id="namedview892"
     pagecolor="#ffffff"
     bordercolor="#111111"
     borderopacity="1"
     inkscape:showpageshadow="0"
     inkscape:pageopacity="0"
     inkscape:pagecheckerboard="1"
     inkscape:deskcolor="#d1d1d1"
     showgrid="false"
     inkscape:zoom="1.271875"
     inkscape:cx="256.70762"
     inkscape:cy="320.39312"
     inkscape:window-width="1920"
     inkscape:window-height="1001"
     inkscape:window-x="-9"
     inkscape:window-y="-9"
     inkscape:window-maximized="1"
     inkscape:current-layer="svg890" />
  <title
     id="title882">media player</title>
  <path
     d="M256,0C114.62,0,0,114.62,0,256S114.62,512,256,512,512,397.38,512,256,397.38,0,256,0Zm76.16,276.67-127.3,79.79-0.1-.16a25.82,25.82,0,0,1-2.84,1.53l-0.11,0a23,23,0,0,1-3,1.1l-0.21.07c-0.44.13-.88,0.24-1.34,0.34l-0.23.06c-0.51.11-1,.2-1.53,0.28l-0.25,0c-0.43.06-.86,0.11-1.3,0.15-0.14,0-.27,0-0.41,0Q192.79,360,192,360a24,24,0,0,1-24-24V176a24,24,0,0,1,37.54-19.82l126.4,79A24,24,0,0,1,332.16,276.67Z"
     id="path884" />
  <metadata
     id="metadata1013">
    <rdf:RDF>
      <cc:Work
         rdf:about="">
        <dc:title>media player</dc:title>
      </cc:Work>
    </rdf:RDF>
  </metadata>
</svg>
