<?xml version="1.0" encoding="UTF-8" standalone="no"?>
<svg
   version="1.1"
   x="0px"
   y="0px"
   viewBox="0 0 100 125"
   enable-background="new 0 0 100 100"
   xml:space="preserve"
   id="svg14"
   sodipodi:docname="audio-max.svg"
   inkscape:version="1.2.2 (732a01da63, 2022-12-09)"
   xmlns:inkscape="http://www.inkscape.org/namespaces/inkscape"
   xmlns:sodipodi="http://sodipodi.sourceforge.net/DTD/sodipodi-0.dtd"
   xmlns="http://www.w3.org/2000/svg"
   xmlns:svg="http://www.w3.org/2000/svg"><defs
     id="defs18" /><sodipodi:namedview
     id="namedview16"
     pagecolor="#ffffff"
     bordercolor="#111111"
     borderopacity="1"
     inkscape:showpageshadow="0"
     inkscape:pageopacity="0"
     inkscape:pagecheckerboard="1"
     inkscape:deskcolor="#d1d1d1"
     showgrid="false"
     inkscape:zoom="6.512"
     inkscape:cx="49.831081"
     inkscape:cy="54.437961"
     inkscape:window-width="1920"
     inkscape:window-height="1001"
     inkscape:window-x="-9"
     inkscape:window-y="-9"
     inkscape:window-maximized="1"
     inkscape:current-layer="svg14" /><path
     d="M50.332,22.511c-1.589-1.077-3.766-0.916-5.173,0.492L32.257,35.904H11.479C7.901,35.904,5,38.805,5,42.384v15.232  c0,3.578,2.901,6.479,6.479,6.479h20.777l12.902,12.902c1.407,1.407,3.584,1.567,5.173,0.492V22.511z"
     id="path2" /><path
     d="M63.334,50.334c0,6.534-3.251,12.301-8.214,15.8l3.565,3.566c5.854-4.447,9.648-11.466,9.648-19.366  c0-7.901-3.795-14.92-9.648-19.367l-3.565,3.566C60.083,38.032,63.334,43.799,63.334,50.334z"
     id="path4" /><path
     d="M76.334,50.334c0,10.047-5.083,18.92-12.807,24.207l3.586,3.587c8.608-6.243,14.221-16.371,14.221-27.794  S75.721,28.782,67.113,22.54l-3.586,3.586C71.251,31.413,76.334,40.287,76.334,50.334z"
     id="path6" /><path
     d="M75.535,14.118l-3.601,3.6c10.485,7.07,17.399,19.046,17.399,32.616c0,13.569-6.914,25.545-17.399,32.615l3.601,3.6  c11.363-8.034,18.799-21.271,18.799-36.215C94.334,35.389,86.898,22.153,75.535,14.118z"
     id="path8" /></svg>
