<?xml version="1.0" encoding="UTF-8" standalone="no"?>
<svg
   data-name="Layer 1"
   viewBox="0 0 512 640"
   x="0px"
   y="0px"
   version="1.1"
   id="svg694"
   sodipodi:docname="audio pause.svg"
   inkscape:version="1.2.2 (732a01da63, 2022-12-09)"
   xmlns:inkscape="http://www.inkscape.org/namespaces/inkscape"
   xmlns:sodipodi="http://sodipodi.sourceforge.net/DTD/sodipodi-0.dtd"
   xmlns="http://www.w3.org/2000/svg"
   xmlns:svg="http://www.w3.org/2000/svg"
   xmlns:rdf="http://www.w3.org/1999/02/22-rdf-syntax-ns#"
   xmlns:cc="http://creativecommons.org/ns#"
   xmlns:dc="http://purl.org/dc/elements/1.1/">
  <sodipodi:namedview
     id="namedview696"
     pagecolor="#ffffff"
     bordercolor="#111111"
     borderopacity="1"
     inkscape:showpageshadow="0"
     inkscape:pageopacity="0"
     inkscape:pagecheckerboard="1"
     inkscape:deskcolor="#d1d1d1"
     showgrid="false"
     inkscape:zoom="1.271875"
     inkscape:cx="256.70762"
     inkscape:cy="320.39312"
     inkscape:window-width="1920"
     inkscape:window-height="1001"
     inkscape:window-x="-9"
     inkscape:window-y="-9"
     inkscape:window-maximized="1"
     inkscape:current-layer="svg694" />
  <defs
     id="defs676">
    <style
       id="style674">.cls-1{fill:none;}</style>
  </defs>
  <title
     id="title678">media player</title>
  <path
     class="cls-1"
     d="M326.93,327.12c-0.17.54-.36,1.07-0.56,1.59C326.58,328.19,326.77,327.66,326.93,327.12Z"
     id="path680" />
  <path
     class="cls-1"
     d="M326,329.6c0.1-.23.19-0.46,0.28-0.69-0.2.5-.42,1-0.65,1.48C325.77,330.13,325.89,329.86,326,329.6Z"
     id="path682" />
  <path
     class="cls-1"
     d="M230.93,327.12a23.77,23.77,0,0,1-.92,2.48A21.7,21.7,0,0,0,230.93,327.12Z"
     id="path684" />
  <path
     class="cls-1"
     d="M193.61,339.08c-0.57-.46-1.12-0.93-1.65-1.37A19.37,19.37,0,0,0,193.61,339.08Z"
     id="path686" />
  <path
     d="M256,0C114.62,0,0,114.62,0,256S114.62,512,256,512,512,397.38,512,256,397.38,0,256,0ZM232,320a23.92,23.92,0,0,1-1.08,7.12,21.7,21.7,0,0,1-.92,2.48c-0.12.26-.24,0.53-0.37,0.79a23.59,23.59,0,0,1-4.66,6.56,22.82,22.82,0,0,1-1.7,1.55A23.93,23.93,0,0,1,208,344a24.38,24.38,0,0,1-3.65-.28,25.39,25.39,0,0,1-3.47-.82c-0.38-.12-0.75-0.24-1.12-0.38-0.74-.28-1.46-0.59-2.16-0.92s-1.37-.72-2-1.12a20.37,20.37,0,0,1-2-1.37,19.37,19.37,0,0,1-1.65-1.37c-0.31-.27-0.61-0.56-0.9-0.85s-0.54-.55-0.8-0.84c-0.51-.57-1-1.16-1.47-1.78a24.48,24.48,0,0,1-2.4-3.95c-0.34-.7-0.64-1.41-0.92-2.14A23.87,23.87,0,0,1,184,320V192a24,24,0,0,1,48,0c0,0.19,0,.38,0,0.56V319.44C232,319.62,232,319.82,232,320Zm96,0a23.92,23.92,0,0,1-1.08,7.12c-0.16.54-.35,1.07-0.56,1.59l-0.08.2c-0.09.23-.18,0.46-0.28,0.69s-0.24.53-.37,0.79a23.59,23.59,0,0,1-4.66,6.56c-0.54.54-1.11,1.05-1.7,1.55A23.93,23.93,0,0,1,304,344a23.62,23.62,0,0,1-7.12-1.1c-0.38-.12-0.75-0.24-1.12-0.38-0.74-.28-1.46-0.59-2.16-0.92s-1.37-.72-2-1.12a24.6,24.6,0,0,1-4.52-3.59c-0.27-.27-0.54-0.55-0.8-0.84-0.51-.57-1-1.16-1.47-1.78a24.48,24.48,0,0,1-2.4-3.95c-0.34-.7-0.64-1.41-0.92-2.14A23.87,23.87,0,0,1,280,320V192a24,24,0,0,1,48,0c0,0.19,0,.38,0,0.56V319.44C328,319.62,328,319.82,328,320Z"
     id="path688" />
  <metadata
     id="metadata869">
    <rdf:RDF>
      <cc:Work
         rdf:about="">
        <dc:title>media player</dc:title>
      </cc:Work>
    </rdf:RDF>
  </metadata>
</svg>
