<?xml version="1.0" encoding="utf-8"?>
<!-- Generator: Adobe Illustrator 24.2.3, SVG Export Plug-In . SVG Version: 6.00 Build 0)  -->
<svg version="1.1" id="Layer_1" xmlns="http://www.w3.org/2000/svg" xmlns:xlink="http://www.w3.org/1999/xlink" x="0px" y="0px"
	 viewBox="0 0 512 640" style="enable-background:new 0 0 512 640;" xml:space="preserve">
<g>
	<path d="M256,22C126.8,22,22,126.8,22,256s104.8,234,234,234s234-104.8,234-234S385.2,22,256,22z M263.7,414.9v-30.1
		c70,0,126.9-57.8,126.9-128.8s-56.9-128.8-126.9-128.8S136.8,185,136.8,256c0,10.4,1.3,20.8,3.7,30.8l12.8-26.3l27,13.1l-27.9,57.5
		c-3.8,7.8-13.7,10.8-21.1,6.4l-58.1-34.1l15.2-25.9l22.2,13c-2.5-11.3-3.8-22.9-3.8-34.6c0-87.6,70.4-158.9,157-158.9
		s157,71.3,157,158.9S350.3,414.9,263.7,414.9z"/>
</g>
</svg>
