<?xml version="1.0" encoding="UTF-8" standalone="no"?>
<svg
   version="1.1"
   x="0px"
   y="0px"
   viewBox="0 0 100 125"
   enable-background="new 0 0 100 100"
   xml:space="preserve"
   id="svg10"
   sodipodi:docname="noun-mute.svg"
   inkscape:version="1.2.2 (732a01da63, 2022-12-09)"
   inkscape:export-filename="noun-mute-1390795.png"
   inkscape:export-xdpi="96"
   inkscape:export-ydpi="96"
   xmlns:inkscape="http://www.inkscape.org/namespaces/inkscape"
   xmlns:sodipodi="http://sodipodi.sourceforge.net/DTD/sodipodi-0.dtd"
   xmlns="http://www.w3.org/2000/svg"
   xmlns:svg="http://www.w3.org/2000/svg"><defs
     id="defs14" /><sodipodi:namedview
     id="namedview12"
     pagecolor="#ffffff"
     bordercolor="#111111"
     borderopacity="1"
     inkscape:showpageshadow="0"
     inkscape:pageopacity="0"
     inkscape:pagecheckerboard="1"
     inkscape:deskcolor="#d1d1d1"
     showgrid="false"
     inkscape:zoom="6.512"
     inkscape:cx="50.138206"
     inkscape:cy="62.576781"
     inkscape:window-width="1920"
     inkscape:window-height="1001"
     inkscape:window-x="-9"
     inkscape:window-y="-9"
     inkscape:window-maximized="1"
     inkscape:current-layer="svg10" /><path
     d="M50.332,22.511c-1.589-1.077-3.766-0.916-5.173,0.492L32.257,35.904H11.479C7.901,35.904,5,38.805,5,42.384v15.232  c0,3.577,2.901,6.479,6.479,6.479h20.777l12.902,12.902c1.407,1.407,3.584,1.567,5.173,0.492L50.332,22.511L50.332,22.511z"
     id="path2" /><path
     d="M75.035,50.001l11.668-11.668c0.391-0.391,0.391-1.023,0-1.415l-2.122-2.121c-0.391-0.391-1.023-0.391-1.414,0  L71.499,46.465L59.832,34.797c-0.392-0.391-1.023-0.391-1.414,0l-2.122,2.122c-0.391,0.391-0.391,1.022,0,1.414l11.667,11.667  L56.297,61.667c-0.391,0.392-0.391,1.023,0,1.414l2.122,2.122c0.391,0.391,1.022,0.391,1.414,0l11.666-11.666l11.667,11.667  c0.391,0.391,1.023,0.391,1.415,0l2.121-2.122c0.391-0.391,0.391-1.023,0-1.414L75.035,50.001z"
     id="path4" /></svg>
